<svg xmlns="http://www.w3.org/2000/svg" width="256" height="256" viewBox="0 0 256 256">
  <defs>
    <radialGradient id="bg" cx="35%" cy="25%" r="75%">
      <stop offset="0%" stop-color="#f6fbff"/>
      <stop offset="100%" stop-color="#d8ecff"/>
    </radialGradient>
    <linearGradient id="pipe" x1="0" y1="0" x2="1" y2="1">
      <stop offset="0%" stop-color="#3a7cff"/>
      <stop offset="100%" stop-color="#1b3f8f"/>
    </linearGradient>
    <linearGradient id="shine" x1="0" y1="0" x2="0" y2="1">
      <stop offset="0%" stop-color="#ffffff" stop-opacity="0.6"/>
      <stop offset="100%" stop-color="#ffffff" stop-opacity="0"/>
    </linearGradient>
  </defs>

  <rect x="0" y="0" width="256" height="256" rx="36" fill="url(#bg)"/>

  <!-- Pipe body -->
  <rect x="86" y="28" width="64" height="148" rx="26" fill="url(#pipe)" stroke="#0b2d5a" stroke-width="6"/>
  <rect x="86" y="106" width="148" height="64" rx="26" fill="url(#pipe)" stroke="#0b2d5a" stroke-width="6"/>

  <!-- Inner highlights -->
  <rect x="96" y="36" width="18" height="132" rx="9" fill="url(#shine)"/>
  <rect x="94" y="116" width="132" height="16" rx="8" fill="url(#shine)"/>

  <!-- Data droplets -->
  <circle cx="138" cy="138" r="10" fill="#aefcff" stroke="#3aa0c8" stroke-width="3"/>
  <circle cx="168" cy="138" r="10" fill="#aefcff" stroke="#3aa0c8" stroke-width="3"/>
  <circle cx="198" cy="138" r="10" fill="#aefcff" stroke="#3aa0c8" stroke-width="3"/>

  <!-- Little spark -->
  <path d="M64 58 L70 72 L84 78 L70 84 L64 98 L58 84 L44 78 L58 72 Z" fill="#ffd36e" stroke="#cc9a2b" stroke-width="3"/>
</svg>
